<svg xmlns="http://www.w3.org/2000/svg" version="1.1" xmlns:xlink="http://www.w3.org/1999/xlink"
    xmlns:svgjs="http://svgjs.dev/svgjs" width="2000" height="1900" viewBox="0 0 2000 1999">
    <g transform="matrix(1,0,0,1,-0.431486880466764,-0.4312711370263287)">
        <svg viewBox="0 0 343 343" data-background-color="#ffffff"
            preserveAspectRatio="xMidYMid meet" height="1999" width="2000"
            xmlns="http://www.w3.org/2000/svg" xmlns:xlink="http://www.w3.org/1999/xlink">
            <g id="tight-bounds" transform="matrix(1,0,0,1,0.0740000000000407,0.07400000000001228)">
                <svg viewBox="0 0 342.85155851775386 342.85155851775386" height="342.85155851775386"
                    width="342.85155851775386">
                    <g>
                        <svg></svg>
                    </g>
                    <g>
                        <svg viewBox="0 0 342.85155851775386 342.85155851775386"
                            height="342.85155851775386" width="342.85155851775386">
                            <g>
                                <path
                                    d="M0 171.426c0-94.676 76.75-171.426 171.426-171.426 94.676 0 171.426 76.75 171.426 171.426 0 94.676-76.75 171.426-171.426 171.426-94.676 0-171.426-76.75-171.426-171.426zM171.426 326.78c85.8 0 155.354-69.554 155.354-155.354 0-85.8-69.554-155.354-155.354-155.354-85.8 0-155.354 69.554-155.354 155.354 0 85.8 69.554 155.354 155.354 155.354z"
                                    data-fill-palette-color="tertiary" fill="#000000"
                                    stroke="transparent"></path>
                                <ellipse rx="164.56874808852186" ry="164.56874808852186"
                                    cx="171.42577925887693" cy="171.42577925887693" fill="#000000"
                                    stroke="transparent" stroke-width="0" fill-opacity="1"
                                    data-fill-palette-color="tertiary"></ellipse>
                            </g>
                            <g transform="matrix(1,0,0,1,64.84655864529837,82.31650164681656)">
                                <svg viewBox="0 0 213.1584412271571 178.21855522412073"
                                    height="178.21855522412073" width="213.1584412271571">
                                    <g>
                                        <svg viewBox="0 0 213.1584412271571 178.21855522412073"
                                            height="178.21855522412073" width="213.1584412271571">
                                            <g>
                                                <svg
                                                    viewBox="0 0 213.1584412271571 178.21855522412073"
                                                    height="178.21855522412073"
                                                    width="213.1584412271571">
                                                    <g>
                                                        <svg
                                                            viewBox="0 0 213.1584412271571 178.21855522412073"
                                                            height="178.21855522412073"
                                                            width="213.1584412271571">
                                                            <g id="textblocktransform">
                                                                <svg
                                                                    viewBox="0 0 213.1584412271571 178.21855522412073"
                                                                    height="178.21855522412073"
                                                                    width="213.1584412271571"
                                                                    id="textblock">
                                                                    <g>
                                                                        <svg
                                                                            viewBox="0 0 213.1584412271571 178.21855522412073"
                                                                            height="178.21855522412073"
                                                                            width="213.1584412271571">
                                                                            <g
                                                                                transform="matrix(1,0,0,1,0,0)">
                                                                                <svg
                                                                                    width="213.1584412271571"
                                                                                    viewBox="2.69 -31.25 41.400000000000006 34.62"
                                                                                    height="178.21855522412073"
                                                                                    data-palette-color="#ffffff">
                                                                                    <path
                                                                                        d="M2.69-14.67L2.69-14.67Q2.69-18.02 3.99-21.03 5.3-24.05 7.79-26.32 10.28-28.59 13.93-29.92 17.58-31.25 22.27-31.25L22.27-31.25Q27.15-31.25 30.75-30.04 34.35-28.83 36.71-26.68 39.06-24.54 40.21-21.61 41.36-18.68 41.36-15.23L41.36-15.23Q41.36-11.89 40.08-8.98 38.79-6.08 36.35-3.92 33.91-1.76 30.33-0.51 26.76 0.73 22.19 0.73L22.19 0.73Q18.26 0.73 14.73-0.24 11.21-1.22 8.52-3.16 5.83-5.1 4.26-7.98 2.69-10.86 2.69-14.67ZM8.08-1.66L8.08-1.66Q9.33-0.76 10.9-0.01 12.48 0.73 14.29 1.28 16.11 1.83 18.12 2.14 20.12 2.44 22.19 2.44L22.19 2.44Q26.73 2.44 30.57 1.21 34.4-0.02 37.18-2.33 39.97-4.64 41.54-7.9 43.12-11.16 43.12-15.23L43.12-15.23Q43.12-17.26 42.57-19.25 42.02-21.24 41.02-23.05 40.01-24.85 38.57-26.42 37.13-27.98 35.35-29.15L35.35-29.15Q37.43-28.2 39.05-26.75 40.67-25.29 41.8-23.49 42.92-21.68 43.51-19.58 44.09-17.48 44.09-15.23L44.09-15.23Q44.09-11.01 42.54-7.57 40.99-4.13 38.12-1.7 35.25 0.73 31.21 2.05 27.17 3.37 22.19 3.37L22.19 3.37Q17.58 3.37 14.01 2.14 10.45 0.9 8.08-1.66ZM8.79-14.87L8.79-14.87Q8.79-12.08 9.79-9.91 10.79-7.74 12.56-6.24 14.33-4.74 16.74-3.96 19.14-3.17 21.97-3.17L21.97-3.17Q25.22-3.17 27.7-4.16 30.18-5.15 31.86-6.81 33.54-8.47 34.4-10.66 35.25-12.84 35.25-15.23L35.25-15.23Q35.25-17.99 34.34-20.24 33.42-22.49 31.73-24.06 30.03-25.63 27.6-26.49 25.17-27.34 22.14-27.34L22.14-27.34Q19.21-27.34 16.76-26.45 14.31-25.56 12.54-23.93 10.77-22.29 9.78-19.98 8.79-17.68 8.79-14.87ZM10.55-14.79L10.55-14.79Q10.55-17.04 11.32-19.02 12.08-21 13.57-22.46 15.06-23.93 17.21-24.78 19.36-25.63 22.14-25.63L22.14-25.63Q25.2-25.63 27.54-24.52 29.88-23.41 31.49-21.34L31.49-21.34Q29.2-23.22 26.92-23.96 24.63-24.71 22.14-24.71L22.14-24.71Q19.63-24.71 17.65-23.93 15.67-23.14 14.32-21.79 12.96-20.43 12.24-18.63 11.52-16.82 11.52-14.79L11.52-14.79Q11.52-13.18 12.08-11.71 12.65-10.23 13.7-8.96 14.75-7.69 16.24-6.69 17.72-5.69 19.6-5L19.6-5Q17.43-5.35 15.73-6.24 14.04-7.13 12.89-8.42 11.74-9.72 11.15-11.34 10.55-12.96 10.55-14.79Z"
                                                                                        opacity="1"
                                                                                        transform="matrix(1,0,0,1,0,0)"
                                                                                        fill="#ffffff"
                                                                                        class="wordmark-text-0"
                                                                                        data-fill-palette-color="quaternary"
                                                                                        id="text-0"></path>
                                                                                </svg>
                                                                            </g>
                                                                        </svg>
                                                                    </g>
                                                                </svg>
                                                            </g>
                                                        </svg>
                                                    </g>
                                                    <g></g>
                                                </svg>
                                            </g>
                                        </svg>
                                    </g>
                                </svg>
                            </g>
                        </svg>
                    </g>
                    <defs></defs>
                </svg>
                <rect width="342.85155851775386" height="342.85155851775386" fill="none"
                    stroke="none" visibility="hidden"></rect>
            </g>
        </svg>
    </g>
</svg>